<svg width="24" height="26" fill="none" xmlns="http://www.w3.org/2000/svg"><path d="M19.5 18.1c-.95 0-1.8.375-2.45.962l-8.913-5.187c.063-.287.113-.575.113-.875 0-.3-.05-.588-.113-.875l8.813-5.138A3.734 3.734 0 0019.5 8a3.745 3.745 0 003.75-3.75A3.745 3.745 0 0019.5.5a3.745 3.745 0 00-3.75 3.75c0 .3.05.588.113.875L7.05 10.262A3.734 3.734 0 004.5 9.25 3.745 3.745 0 00.75 13a3.745 3.745 0 003.75 3.75c.987 0 1.875-.387 2.55-1.012l8.9 5.2c-.063.262-.1.537-.1.812a3.654 3.654 0 003.65 3.65 3.654 3.654 0 003.65-3.65 3.654 3.654 0 00-3.65-3.65z" fill="#828282"/></svg>