<svg width="16" height="13" fill="none" xmlns="http://www.w3.org/2000/svg"><path d="M8 2.667A3.335 3.335 0 0111.334 6c0 .433-.087.84-.24 1.22l1.946 1.947A7.878 7.878 0 0015.327 6c-1.153-2.927-4-5-7.333-5-.934 0-1.827.167-2.654.467l1.44 1.44c.38-.154.787-.24 1.22-.24zM1.334.847l1.52 1.52.306.306A7.87 7.87 0 00.667 6c1.153 2.927 4 5 7.333 5 1.034 0 2.02-.2 2.92-.56l.28.28 1.954 1.947.846-.847L2.18 0l-.846.847zM5.02 4.533l1.034 1.034A1.88 1.88 0 006 6c0 1.107.894 2 2 2 .147 0 .293-.02.434-.053L9.466 8.98c-.447.22-.94.353-1.467.353A3.335 3.335 0 014.667 6c0-.527.133-1.02.353-1.467zm2.874-.52l2.1 2.1.013-.106c0-1.107-.893-2-2-2l-.113.006z" fill="#555"/></svg>