<svg width="30" height="30" fill="none" xmlns="http://www.w3.org/2000/svg"><path d="M14.987 2.499c-6.9 0-12.487 5.6-12.487 12.5s5.587 12.5 12.487 12.5c6.913 0 12.513-5.6 12.513-12.5s-5.6-12.5-12.513-12.5zm8.663 7.5h-3.688a19.561 19.561 0 00-1.725-4.45c2.3.788 4.213 2.388 5.413 4.45zM15 5.049a17.608 17.608 0 012.387 4.95h-4.775A17.608 17.608 0 0115 5.049zm-9.675 12.45c-.2-.8-.325-1.637-.325-2.5s.125-1.7.325-2.5H9.55c-.1.825-.175 1.65-.175 2.5 0 .85.075 1.675.175 2.5H5.325zm1.025 2.5h3.687c.4 1.563.975 3.063 1.725 4.45a9.983 9.983 0 01-5.412-4.45zm3.687-10H6.35a9.983 9.983 0 015.412-4.45 19.561 19.561 0 00-1.725 4.45zM15 24.949a17.608 17.608 0 01-2.388-4.95h4.775A17.608 17.608 0 0115 24.949zm2.925-7.45h-5.85c-.113-.825-.2-1.65-.2-2.5 0-.85.087-1.688.2-2.5h5.85c.112.813.2 1.65.2 2.5 0 .85-.088 1.675-.2 2.5zm.312 6.95a19.561 19.561 0 001.725-4.45h3.688a10.037 10.037 0 01-5.413 4.45zm2.213-6.95c.1-.825.175-1.65.175-2.5 0-.85-.075-1.675-.175-2.5h4.225c.2.8.325 1.637.325 2.5 0 .862-.125 1.7-.325 2.5H20.45z" fill="#fff"/></svg>