<svg width="30" height="30" fill="none" xmlns="http://www.w3.org/2000/svg"><path fill-rule="evenodd" clip-rule="evenodd" d="M30 15c0 8.284-6.716 15-15 15-8.284 0-15-6.716-15-15C0 6.716 6.716 0 15 0c8.284 0 15 6.716 15 15zm-7.504 7.499h-3.103v-4.875c0-1.162-.024-2.652-1.617-2.652-1.617 0-1.864 1.263-1.864 2.568v4.96h-3.106V12.485h2.983v1.365h.043c.415-.787 1.43-1.617 2.942-1.617 3.147 0 3.726 2.073 3.726 4.765v5.501h-.004zM7.748 12.485h3.11V22.5h-3.11V12.485zM7.5 9.301a1.802 1.802 0 013.602 0c0 .995-.806 1.818-1.8 1.818A1.816 1.816 0 017.5 9.301z" fill="#fff"/></svg>