<svg width="30" height="30" fill="none" xmlns="http://www.w3.org/2000/svg"><path fill-rule="evenodd" clip-rule="evenodd" d="M30 15c0 8.284-6.716 15-15 15-8.284 0-15-6.716-15-15C0 6.716 6.716 0 15 0c8.284 0 15 6.716 15 15zm-8.583-4.754a7.154 7.154 0 002.059-.564 7.272 7.272 0 01-1.79 1.855c.008.154.011.309.011.464 0 4.739-3.607 10.202-10.201 10.202A10.14 10.14 0 016 20.592a7.194 7.194 0 005.308-1.485 3.59 3.59 0 01-3.35-2.49 3.59 3.59 0 001.62-.062 3.587 3.587 0 01-2.876-3.56 3.56 3.56 0 001.624.449 3.585 3.585 0 01-1.11-4.788 10.178 10.178 0 007.39 3.747 3.586 3.586 0 016.11-3.27 7.178 7.178 0 002.277-.87 3.595 3.595 0 01-1.576 1.983z" fill="#fff"/></svg>