<svg width="30" height="30" fill="none" xmlns="http://www.w3.org/2000/svg"><path fill-rule="evenodd" clip-rule="evenodd" d="M15 30c8.284 0 15-6.716 15-15 0-8.284-6.716-15-15-15C6.716 0 0 6.716 0 15c0 8.284 6.716 15 15 15zM10.967 6h8.065A4.973 4.973 0 0124 10.967v8.065A4.973 4.973 0 0119.032 24h-8.065A4.973 4.973 0 016 19.032v-8.065A4.973 4.973 0 0110.967 6zm8.066 16.403a3.374 3.374 0 003.37-3.37v-8.066a3.374 3.374 0 00-3.37-3.37h-8.066a3.374 3.374 0 00-3.37 3.37v8.065a3.374 3.374 0 003.37 3.37h8.066zM15 10.36A4.643 4.643 0 0010.362 15 4.643 4.643 0 0015 19.637 4.643 4.643 0 0019.638 15 4.643 4.643 0 0015 10.361zm0 7.679A3.044 3.044 0 0111.96 15 3.045 3.045 0 0115 11.957a3.045 3.045 0 013.041 3.041 3.044 3.044 0 01-3.04 3.041zm4.006-8.69c.217-.218.52-.343.827-.343.309 0 .611.125.828.343a1.176 1.176 0 010 1.657c-.218.217-.52.343-.828.343a1.18 1.18 0 01-.827-.343 1.18 1.18 0 01-.344-.829c0-.308.125-.61.344-.828z" fill="#fff"/></svg>